# xmcd
#
# Track frame offsets:
#	150
#	17962
#	34180
#	52067
#	63057
#	80777
#	96312
#	112347
#	127082
#	143857
#	158000
#	170400
#
# Disc length: 2484
#
# Revision: 1
# Processed by: cddbd v1.5.1PL0 Copyright (c) Steve Scherf et al.
# Submitted via: dBpowerAMP V4.0
# Normalized: r0:TDELIM( - )
#
DISCID=ad09b20c
DTITLE=Various Artist - Country Countdown (Love)
DYEAR=1900
DGENRE=Country
TTITLE0=Juice Newton and Eddie Rabbitt - Both to each other (Friends and Lovers)
TTITLE1=Alabama - The closer you get
TTITLE2=Ronnie Milsap - The difference you've made in my life
TTITLE3=Waylon Jennings - Dreaming my dreams with you
TTITLE4=Dolly Parton and Kenny Rogers - Real love
TTITLE5=Martina McBride - All the things we've never done
TTITLE6=Keith Whitley and Lorrie Morgan - 'Till a tear becomes a rose
TTITLE7=Willie Nelson - Sweet memories
TTITLE8=Lee Roy Parnell - They don't know you
TTITLE9=Ronnie Milsap - Four walls
TTITLE10=Dave and Sugar - The door is always open
TTITLE11=Steve Wariner - All roads lead to you
EXTD=
EXTT0=
EXTT1=
EXTT2=
EXTT3=
EXTT4=
EXTT5=
EXTT6=
EXTT7=
EXTT8=
EXTT9=
EXTT10=
EXTT11=
PLAYORDER=
